<svg id="Layer_1" data-name="Layer 1" xmlns="http://www.w3.org/2000/svg" viewBox="0 0 128 128"><defs><style>.cls-1{fill:#300;}.cls-2{fill:#ff9a00;}.cls-3{fill:#fff;}</style></defs><title>Artboard 1</title><path class="cls-1" d="M24,126a10.01135,10.01135,0,0,1-10-10V12A10.01135,10.01135,0,0,1,24,2H85.521a7.94687,7.94687,0,0,1,5.646,2.333l20.48,20.408A8.05446,8.05446,0,0,1,114,30.408V116a10.01135,10.01135,0,0,1-10,10Z"/><path class="cls-2" d="M85.52,4a5.99659,5.99659,0,0,1,4.235,1.75l20.48,20.408A5.99929,5.99929,0,0,1,112,30.408V116a8.00036,8.00036,0,0,1-8,8H24a8.00036,8.00036,0,0,1-8-8V12a8.00036,8.00036,0,0,1,8-8H85.52m0-4H24A12.01336,12.01336,0,0,0,12,12V116a12.01336,12.01336,0,0,0,12,12h80a12.01335,12.01335,0,0,0,12-12V30.408a10.07006,10.07006,0,0,0-2.941-7.084L92.579,2.917A9.93665,9.93665,0,0,0,85.52,0Z"/><g id="_512" data-name=" 512"><path class="cls-2" d="M63.15,59.49894H48.10673L45.046,69.00685a.76623.76623,0,0,1-.78144.58608H36.64522q-.65187,0-.45591-.71631L49.21383,31.366q.19536-.58619.39072-1.33506a13.93054,13.93054,0,0,0,.26048-2.63746.40305.40305,0,0,1,.45591-.45584H60.67535q.4549,0,.521.3256l14.783,41.6785q.19536.65167-.39086.6512H67.12255a.60181.60181,0,0,1-.6512-.45584ZM50.45118,51.29349H60.74053q-.39072-1.30193-.91168-2.93053-.52209-1.62707-1.1071-3.48408-.58608-1.85592-1.17216-3.712-.58629-1.856-1.07452-3.58173-.48851-1.72476-.87921-3.15848h-.06519a52.51737,52.51737,0,0,1-1.36759,5.20986q-.9126,2.93049-1.85595,5.99123Q51.36234,48.68956,50.45118,51.29349Z"/><path class="cls-2" d="M83.46747,33.84062a4.72352,4.72352,0,0,1-3.58167-1.43271,5.15234,5.15234,0,0,1-1.36758-3.712,4.7787,4.7787,0,0,1,1.46523-3.61432,5.03251,5.03251,0,0,1,3.61439-1.40012,4.84341,4.84341,0,0,1,3.67931,1.40012,5.02742,5.02742,0,0,1,1.335,3.61432,5.08516,5.08516,0,0,1-1.4,3.712A4.99687,4.99687,0,0,1,83.46747,33.84062ZM78.97412,68.94173V37.81307q0-.58608.521-.58608h8.0101q.52049,0,.521.58608V68.94173q0,.65166-.521.6512h-7.9449Q78.974,69.59293,78.97412,68.94173Z"/></g><path class="cls-3" d="M51.521,100.46094,50.273,105.167c-.02588.12989-.07813.18164-.23389.18164H47.72461c-.15576,0-.18164-.05175-.15576-.2334L52.041,89.46289a4.80475,4.80475,0,0,0,.15576-1.30078c0-.10352.05224-.15625.13037-.15625h3.30176c.104,0,.15625.02637.18213.15625l5.01806,16.97851c.02637.13086,0,.208-.12988.208h-2.6001a.20886.20886,0,0,1-.23389-.15527l-1.30029-4.73242Zm4.394-2.57422c-.4419-1.74219-1.48193-5.53809-1.87207-7.38477h-.02588c-.33838,1.84668-1.17041,4.94043-1.82031,7.38477Z"/><path class="cls-3" d="M66.05469,105.14062c0,.15626-.02539.208-.208.208h-2.418c-.15625,0-.208-.07715-.208-.208V88.21484c0-.15625.07813-.209.208-.209h2.44434c.12988,0,.18164.05273.18164.18262Z"/><path class="cls-3" d="M79.88672,104.90625a.26372.26372,0,0,1-.18164.28711,8.24947,8.24947,0,0,1-2.88672.38965c-4.05566,0-7.64356-2.65235-7.64356-8.89258,0-5.35645,3.17188-8.94434,8.00782-8.94434a7.1378,7.1378,0,0,1,2.7041.36426c.13086.05176.15625.12988.15625.28613v2.23633c0,.207-.10352.207-.18164.18164a6.177,6.177,0,0,0-2.65235-.49414c-3.042,0-5.07031,2.31446-5.07031,6.292,0,4.915,2.78223,6.37012,5.07031,6.37012a7.1665,7.1665,0,0,0,2.4961-.33789c.10351-.05176.18164-.05176.18164.13086Z"/></svg>