<?xml version="1.0" standalone="no"?>
<!DOCTYPE svg PUBLIC "-//W3C//DTD SVG 20010904//EN"
 "http://www.w3.org/TR/2001/REC-SVG-20010904/DTD/svg10.dtd">
<svg version="1.0" xmlns="http://www.w3.org/2000/svg"
 width="1001.000000pt" height="677.000000pt" viewBox="0 0 1001.000000 677.000000"
 preserveAspectRatio="xMidYMid meet">
<metadata>
Created by potrace 1.15, written by Peter Selinger 2001-2017
</metadata>
<g transform="translate(0.000000,677.000000) scale(0.100000,-0.100000)"
fill="#000000" stroke="none">
<path d="M3945 6734 c-499 -19 -1146 -90 -1575 -175 -569 -112 -1190 -361
-1623 -651 -238 -160 -507 -410 -564 -526 -33 -65 -42 -102 -92 -367 -36 -188
-48 -290 -56 -480 -7 -144 7 -399 26 -468 5 -21 12 -79 13 -130 2 -57 10 -107
20 -132 10 -22 19 -69 22 -105 8 -105 14 -128 38 -157 12 -15 37 -66 55 -113
114 -291 310 -569 535 -758 300 -250 742 -462 1351 -647 677 -205 1141 -292
1615 -302 737 -16 1460 149 2185 501 334 162 530 283 762 469 153 122 254 223
362 357 59 75 96 112 129 130 59 31 101 107 107 192 2 31 15 98 29 150 47 175
59 262 53 403 -4 119 -3 135 19 186 12 30 30 95 39 143 9 48 27 115 40 149 48
128 54 261 18 419 -8 37 -15 116 -16 175 l-2 108 -73 138 c-40 76 -89 179
-107 230 -19 50 -55 122 -80 158 -59 87 -176 198 -290 275 -50 34 -147 109
-216 167 -230 190 -308 237 -519 315 -590 217 -931 292 -1505 331 -160 11
-566 20 -700 15z m452 -24 c666 -25 1029 -90 1588 -285 354 -124 418 -159 660
-360 77 -64 181 -144 230 -177 116 -79 270 -233 312 -313 17 -33 45 -97 61
-142 17 -45 55 -127 86 -182 31 -55 63 -119 71 -142 17 -46 19 -153 5 -214 -5
-22 -18 -125 -30 -228 -26 -235 -42 -320 -87 -461 -61 -193 -73 -269 -80 -506
-4 -172 -3 -225 9 -265 17 -60 10 -117 -24 -178 -28 -51 -58 -67 -125 -67 -63
0 -107 32 -123 88 -19 69 -40 231 -37 297 2 61 0 66 -31 97 -43 43 -100 45
-189 5 -95 -42 -300 -92 -593 -142 -146 -25 -364 -64 -485 -86 -276 -50 -524
-85 -685 -98 -266 -22 -631 -33 -850 -26 -238 7 -298 2 -417 -37 -110 -36
-151 -84 -219 -256 -28 -71 -100 -194 -163 -279 -76 -102 -206 -252 -227 -261
-40 -19 -130 -15 -173 7 -51 26 -132 117 -177 198 -49 86 -84 180 -129 338
-21 72 -51 156 -68 188 -74 141 -223 215 -502 247 -49 6 -144 24 -210 40 -141
33 -704 143 -820 160 -293 42 -524 90 -607 127 -56 25 -59 25 -84 8 -21 -14
-25 -22 -20 -46 3 -16 17 -46 31 -67 18 -26 25 -50 25 -84 0 -59 -24 -88 -73
-88 -67 0 -107 57 -107 154 0 29 -10 85 -22 122 -12 39 -21 93 -20 124 0 30
-6 89 -14 130 -48 251 -38 621 27 960 51 264 60 303 91 364 53 105 291 331
516 490 382 269 981 523 1522 646 419 95 1123 181 1640 199 118 4 226 8 240 9
14 1 138 -3 277 -8z m3055 -2070 c1 -106 -2 -124 -35 -225 -20 -60 -39 -132
-42 -160 -4 -27 -20 -82 -36 -122 -27 -69 -28 -77 -22 -192 4 -76 1 -148 -6
-198 -17 -103 -62 -283 -71 -283 -11 0 -11 243 1 388 9 130 21 187 70 342 41
128 65 247 83 415 9 77 19 167 23 200 l7 60 13 -55 c8 -30 15 -107 15 -170z
m-7030 -885 c50 -18 309 -69 508 -100 196 -30 745 -136 880 -170 52 -13 149
-31 215 -39 201 -26 310 -65 396 -143 60 -54 83 -102 133 -273 76 -261 145
-400 246 -494 62 -58 103 -76 176 -76 77 0 117 22 171 94 26 33 70 88 98 121
87 102 183 260 231 380 58 144 93 180 215 222 l84 28 295 -3 c437 -4 860 19
1165 63 153 22 816 137 1090 189 150 29 286 66 365 100 79 35 122 41 158 22
37 -19 47 -44 43 -112 -2 -56 22 -233 41 -295 13 -47 68 -99 103 -99 54 0 43
-21 -106 -195 -181 -210 -500 -449 -849 -635 -775 -413 -1590 -617 -2380 -597
-367 9 -671 56 -1145 177 -1015 258 -1631 552 -1978 944 -136 155 -285 403
-360 602 l-15 40 29 -4 c37 -5 86 15 100 40 21 39 12 104 -23 168 -32 59 -32
61 -14 75 16 12 24 12 55 -1 20 -9 52 -22 73 -29z"/>
<path d="M3800 5451 c-109 -10 -148 -28 -226 -101 -84 -78 -210 -140 -298
-147 -52 -5 -70 -2 -107 18 -99 51 -230 12 -343 -104 -65 -66 -123 -163 -113
-189 6 -17 47 -23 282 -38 83 -5 215 -17 294 -26 158 -18 228 -17 796 10 417
20 620 48 755 106 36 15 86 35 112 44 54 20 79 52 86 111 13 119 -106 199
-362 245 -60 11 -130 20 -155 20 -26 0 -87 12 -136 26 -81 23 -110 26 -295 29
-113 2 -243 0 -290 -4z m575 -44 c50 -14 128 -28 175 -31 106 -8 284 -47 341
-77 116 -58 150 -119 115 -203 -14 -35 -28 -42 -216 -113 -105 -40 -351 -72
-640 -83 -140 -6 -310 -15 -378 -20 -173 -14 -336 -12 -482 5 -69 8 -195 19
-280 25 -274 18 -282 19 -274 44 12 38 82 133 130 175 52 45 129 85 187 95 29
6 50 1 94 -18 34 -16 73 -26 102 -26 103 0 238 62 338 154 32 29 73 61 92 71
48 24 186 34 416 30 165 -3 202 -7 280 -28z"/>
</g>
</svg>
