<?xml version="1.0" standalone="no"?>
<!DOCTYPE svg PUBLIC "-//W3C//DTD SVG 20010904//EN"
 "http://www.w3.org/TR/2001/REC-SVG-20010904/DTD/svg10.dtd">
<svg version="1.0" xmlns="http://www.w3.org/2000/svg"
 width="128.000000pt" height="128.000000pt" viewBox="0 0 128.000000 128.000000"
 preserveAspectRatio="xMidYMid meet">
<metadata>
Created by potrace 1.15, written by Peter Selinger 2001-2017
</metadata>
<g transform="translate(0.000000,128.000000) scale(0.100000,-0.100000)"
fill="#000000" stroke="none">
<path d="M190 1210 c-20 -20 -20 -33 -20 -575 0 -542 0 -555 20 -575 19 -19
33 -20 455 -20 422 0 436 1 455 20 19 19 20 33 20 482 l0 461 -117 113 -118
113 -337 1 c-325 0 -339 -1 -358 -20z m684 -186 c19 -18 21 -55 4 -72 -15 -15
-61 -15 -76 0 -17 17 -15 48 5 70 20 22 46 23 67 2z m-183 -229 l76 -215 -47
0 -48 0 -18 50 -18 50 -76 0 -76 0 -13 -50 -13 -50 -44 0 c-24 0 -44 4 -44 8
0 5 29 93 65 196 36 103 65 196 65 207 0 17 7 19 58 19 l57 0 76 -215z m199
-55 l0 -160 -50 0 -50 0 0 160 0 160 50 0 50 0 0 -160z m-299 -430 c25 -85 26
-90 8 -90 -12 0 -21 10 -25 25 -4 18 -13 25 -29 25 -16 0 -25 -7 -29 -25 -4
-14 -14 -25 -22 -25 -12 0 -15 6 -10 23 3 12 13 52 23 90 14 55 21 67 38 67
17 0 24 -15 46 -90z m79 0 c0 -83 -1 -90 -20 -90 -19 0 -20 7 -20 90 0 83 1
90 20 90 19 0 20 -7 20 -90z m140 71 c0 -14 -5 -18 -20 -14 -27 7 -60 -23 -60
-54 0 -41 18 -63 50 -63 20 0 30 -5 30 -15 0 -18 -51 -21 -80 -5 -24 13 -43
70 -34 104 8 34 49 66 85 66 22 0 29 -5 29 -19z"/>
<path d="M538 852 c-9 -32 -20 -66 -24 -75 -5 -15 1 -17 46 -17 44 0 51 2 46
18 -22 77 -41 132 -45 132 -3 0 -14 -26 -23 -58z"/>
<path d="M538 327 c-4 -19 -1 -27 8 -27 15 0 16 6 5 35 -7 17 -8 17 -13 -8z"/>
</g>
</svg>
